<?xml version="1.0" encoding="UTF-8" standalone="no"?>
<svg width="148px" height="24px" viewBox="0 0 148 24" version="1.1" xmlns="http://www.w3.org/2000/svg" xmlns:xlink="http://www.w3.org/1999/xlink">
    <!-- Generator: Sketch 43.2 (39069) - http://www.bohemiancoding.com/sketch -->
    <title>C4C Logo Reverse</title>
    <desc>Created with Sketch.</desc>
    <defs></defs>
    <g id="Symbols" stroke="none" stroke-width="1" fill="none" fill-rule="evenodd">
        <g id="Mobile-Drawer-Menu" transform="translate(-21.000000, -14.000000)">
            <g id="Mobile-Drawer-Header" transform="translate(21.000000, 14.000000)">
                <g id="C4C-Logo-Reverse">
                    <path d="M27.2049254,23.739164 C24.8391459,23.728035 22.6795372,23.0506717 20.7902288,21.5136259 C20.1439665,20.9878789 19.5744362,20.3795809 19.0902051,19.6850658 C19.0329665,19.6030386 18.9986357,19.5654618 18.9068801,19.657898 C17.455118,21.1214269 15.7204531,22.0277203 13.7879364,22.5488193 C12.5187542,22.8911342 11.231879,23.0197724 9.92873852,22.9023287 C5.47406053,22.5008337 1.8095484,19.3959082 0.505104254,14.9493492 C0.1179056,13.6293843 -0.0579696262,12.278913 0.0168999548,10.9001608 C0.161300158,8.2428176 1.06879894,5.90801894 2.7589518,3.92889001 C4.52329135,1.86288943 6.73722086,0.655131111 9.32537412,0.186469297 C10.4695874,-0.0207264902 11.6203192,-0.0626893653 12.7700577,0.0981574117 C15.4630036,0.474841317 17.7124434,1.70616693 19.4038999,3.98846289 C19.426187,4.01857666 19.4520747,4.04666102 19.4692711,4.07972069 C19.5176943,4.17268057 19.5592885,4.16639596 19.6303711,4.09425386 C20.9078101,2.79838005 22.4223981,1.93535886 24.106467,1.387943 C25.4259968,0.958952801 26.7747047,0.763147872 28.1579916,0.813490229 C32.7868065,0.981996377 36.8175339,4.29640886 38.0961524,8.99114462 C38.4475925,10.2817158 38.6049055,11.5965089 38.5224,12.9352621 C38.3591893,15.5854042 37.4369152,17.9082228 35.7387539,19.8714438 C33.9659093,21.9208819 31.7503036,23.1135833 29.1659373,23.5686939 C28.5168192,23.6830608 27.8636039,23.7421099 27.2049254,23.739164 Z M17.2786158,7.89559281 L17.2755738,7.88086325 L17.2616677,7.87732815 C16.8781939,8.03954969 16.5112336,8.23960982 16.1414797,8.43220698 C16.0092473,8.50107585 15.9638041,8.48444782 15.8986191,8.34160383 C15.4071866,7.26431667 14.7326775,6.34735256 13.74944,5.7192842 C12.4841068,4.91092603 11.1185751,4.80520054 9.70809674,5.13619008 C8.08890237,5.51601629 6.81854065,6.44653159 5.97094995,7.95366 C4.86572345,9.91897587 4.82065271,11.9835362 5.63546469,14.0618442 C6.8135121,17.0666741 9.68897582,18.5872882 12.6239751,17.7988313 C13.8220126,17.4770068 14.8355456,16.8417374 15.5884629,15.7860535 C16.3644743,14.6980302 16.6754376,13.4460177 16.7023807,12.1116507 C16.7204463,11.2166172 16.7274614,10.3246606 16.8937141,9.44239283 C16.9924848,8.91821694 17.1332223,8.40647935 17.2786158,7.89559281 Z M21.4290476,15.2798215 C21.374851,15.4764775 21.2901726,15.6648195 21.2707413,15.8690693 C21.3269866,15.8765323 21.3678979,15.8375808 21.4135895,15.8148646 C21.7590697,15.6426924 22.1059158,15.4732697 22.4477954,15.2934382 C22.5478698,15.2408046 22.5859875,15.2616878 22.6267747,15.3655803 C22.7198339,15.6023661 22.8435612,15.8233095 22.9697717,16.0422889 C23.6034937,17.141965 24.4502773,17.9839721 25.6057273,18.4441889 C26.5391759,18.8158975 27.502175,18.8600862 28.4768453,18.68523 C30.2407503,18.368839 31.6306178,17.4343959 32.5610865,15.8161084 C33.6041079,14.0021469 33.706976,12.0640644 33.0596583,10.0882087 C32.0033516,6.86394109 28.9767829,5.09128784 25.8989975,5.95208323 C24.4598999,6.35462569 23.3207151,7.18275419 22.5803381,8.5687729 C22.0631421,9.5369304 21.8403337,10.5941854 21.8408924,11.6908501 C21.841389,12.9086245 21.7522408,14.1066286 21.4290476,15.2798215 Z" id="Challenge-for-Change-Logo" fill="#FFFFFF"></path>
                    <path d="M97.4253127,19.4702115 C97.4828901,19.4165192 97.576061,19.3069206 97.5922873,19.3179912 C97.7430356,19.4248222 97.6776067,19.5299926 97.5676861,19.6240924 C97.5205772,19.5737213 97.4729449,19.5222432 97.4253127,19.4702115" id="Fill-49" fill="#FFFFFF"></path>
                    <path d="M136.344075,4.89588325 C137.183035,4.89588325 138.021849,4.89742238 138.860809,4.89449804 C139.018589,4.89388239 139.14163,4.89880759 139.157832,5.12351972 C139.274013,6.72190019 139.029098,8.21623587 138.038342,9.49709503 C136.886159,10.9868133 135.354341,11.5625997 133.582425,11.4731766 C130.963083,11.3412736 128.954862,9.48047248 128.479627,6.79500859 C127.949073,3.79756423 130.009401,0.765027832 132.871031,0.339306081 C134.507937,0.0956627212 136.042674,0.352388636 137.402408,1.41315303 C138.001999,1.88089287 138.430966,2.49130953 138.742438,3.20377012 C138.833369,3.41185971 138.793523,3.4972811 138.593708,3.55576782 C137.939092,3.74708096 137.285205,3.9422419 136.635113,4.15002367 C136.477188,4.20050694 136.394868,4.17372618 136.314008,4.02119897 C135.598527,2.67184879 134.022777,2.44328885 132.858479,2.86085325 C131.623538,3.30381319 130.825008,4.66085899 130.93287,6.06546373 C131.050073,7.59458361 131.981132,8.74554068 133.325541,9.02304477 C134.668782,9.30054887 135.964441,8.67289402 136.502438,7.49638749 C136.617306,7.24504851 136.612198,7.14546717 136.305104,7.15177758 C135.478697,7.16886186 134.651559,7.14731412 133.825151,7.16362884 C133.564034,7.16886186 133.491932,7.07774571 133.500689,6.81301635 C133.517912,6.28802108 133.517912,5.7614867 133.500689,5.23649144 C133.491932,4.9696073 133.569581,4.88480156 133.827486,4.88972676 C134.666155,4.90588756 135.505261,4.89572934 136.344075,4.89588325" id="Fill-6" fill="#FFFFFF"></path>
                    <path d="M120.192896,5.09833965 C120.192896,7.03671266 120.18589,8.94753534 120.199756,10.8580502 C120.201945,11.1744941 120.12634,11.2746911 119.819246,11.2617625 C119.199951,11.2355974 118.578905,11.2460634 117.95888,11.2582225 C117.751621,11.2623781 117.688568,11.1929636 117.689006,10.974408 C117.694406,7.57586786 117.695428,4.17732773 117.6874,0.778787603 C117.686816,0.529141659 117.767968,0.479889685 117.981211,0.486046181 C118.479508,0.500360036 118.979119,0.506054796 119.476831,0.483891407 C119.714595,0.473271451 119.849313,0.576700596 119.992497,0.756008565 C121.575691,2.73624575 123.166183,4.71001861 124.754924,6.68517669 C124.792727,6.73211998 124.832719,6.77690849 124.913725,6.87187246 C124.921315,6.69795142 124.93124,6.57789973 124.93124,6.45784805 C124.932262,4.58550347 124.93883,2.71300498 124.924964,0.840814308 C124.922774,0.546533762 125.001299,0.47450275 125.270298,0.483891407 C125.889885,0.505131321 126.510639,0.497589613 127.130664,0.486661831 C127.335733,0.482967933 127.430897,0.516213016 127.430313,0.77355458 C127.421848,4.17209471 127.423162,7.57063484 127.428124,10.9693289 C127.428416,11.1811124 127.376163,11.264379 127.162337,11.2583764 C126.639811,11.2443704 126.116118,11.2409843 125.593884,11.2600694 C125.372467,11.2682268 125.265773,11.1340152 125.146088,10.9891836 C123.578074,9.09652256 122.010059,7.20370763 120.440731,5.312124 C120.379429,5.23824604 120.339874,5.1362021 120.192896,5.09833965" id="Fill-8" fill="#FFFFFF"></path>
                    <path d="M69.921291,5.84264472 C69.921291,4.18854795 69.9303403,2.53429727 69.9137012,0.880354408 C69.9103442,0.55282878 70.0027349,0.471255198 70.300195,0.483414279 C70.8951152,0.507732441 71.4920788,0.504962018 72.087291,0.484183841 C72.3650469,0.474333446 72.4606487,0.544825334 72.4553942,0.859268407 C72.4359819,2.00006726 72.4603567,3.14178958 72.4397768,4.28258844 C72.4337926,4.61365405 72.5323135,4.6824529 72.8277302,4.67814335 C74.0191762,4.6601356 75.21106,4.66182864 76.4025059,4.67721988 C76.6755913,4.68075986 76.7539701,4.60195671 76.7501752,4.31198571 C76.7347038,3.14532957 76.7498833,1.97821169 76.7387906,0.811555557 C76.7366012,0.566373073 76.7933785,0.477873432 77.0396077,0.484491666 C77.6835694,0.502345507 78.3285529,0.498035959 78.9728065,0.486184703 C79.1762704,0.482490804 79.2429727,0.542824473 79.2425348,0.765381831 C79.2364046,4.16330631 79.2359667,7.5613847 79.2431186,10.9593092 C79.2437025,11.2024908 79.1692644,11.2634401 78.950621,11.2586688 C78.3186278,11.2454324 77.6856128,11.2398915 77.0539115,11.2605158 C76.7811181,11.2694427 76.7370391,11.1537006 76.7392285,10.9025155 C76.7494454,9.72293072 76.733828,8.54303811 76.7504671,7.36360724 C76.7548458,7.05670588 76.6691692,6.97297752 76.381926,6.97682533 C75.1783656,6.99283223 73.9743674,6.99052354 72.7705151,6.97790272 C72.5184476,6.9751323 72.439047,7.04747113 72.4421121,7.31989612 C72.4553942,8.51210172 72.4386092,9.70492297 72.4542266,10.8971286 C72.4581674,11.1872535 72.381686,11.2705201 72.1081628,11.2606697 C71.5008363,11.239122 70.8919042,11.2395837 70.2845776,11.2603619 C70.0050702,11.2699044 69.910928,11.1971039 69.9139931,10.8818912 C69.9296105,9.202245 69.921291,7.52244486 69.921291,5.84264472" id="Fill-10" fill="#FFFFFF"></path>
                    <path d="M139.989713,5.84850878 C139.989713,4.18102163 139.996281,2.51368839 139.983291,0.846509067 C139.980955,0.558385018 140.053496,0.482352283 140.328041,0.483737495 C142.748298,0.495588751 145.168846,0.494665277 147.589103,0.484507057 C147.847009,0.483583583 147.921447,0.56038588 147.911814,0.828809139 C147.892694,1.36673304 147.891088,1.90665781 147.912252,2.44427389 C147.923491,2.72885795 147.819569,2.78103426 147.576405,2.77949514 C146.007369,2.76949083 144.438332,2.78180383 142.869442,2.76748997 C142.585556,2.76502737 142.487473,2.84106011 142.505863,3.1482693 C142.53126,3.56983541 142.528924,3.99540325 142.506447,4.41727719 C142.49083,4.71171165 142.565268,4.80821474 142.862144,4.80452084 C144.272817,4.78682091 145.683928,4.80636779 147.094601,4.78897569 C147.401987,4.78512788 147.489561,4.87932228 147.471754,5.19622795 C147.445774,5.65627217 147.444022,6.12062594 147.472338,6.58051625 C147.492042,6.90265494 147.373379,6.95744776 147.100002,6.95498516 C145.689183,6.94205652 144.278218,6.95729385 142.867398,6.94190261 C142.583512,6.93897827 142.487181,7.01301014 142.505571,7.32083498 C142.531698,7.75532974 142.528049,8.19336449 142.506593,8.6284749 C142.493165,8.89859119 142.570814,8.97169959 142.828136,8.96954482 C144.397026,8.95661617 145.966209,8.97616305 147.534953,8.9532301 C147.887147,8.94799708 147.960855,9.06958789 147.94407,9.40465523 C147.919696,9.89086456 147.923928,10.3796904 147.943049,10.8663615 C147.954287,11.153562 147.892548,11.2636094 147.588519,11.2617625 C145.168117,11.2477564 142.747714,11.2489877 140.327311,11.260839 C140.045906,11.2622242 139.982269,11.1683376 139.984166,10.8889866 C139.995113,9.20887863 139.989713,7.52861675 139.989713,5.84850878" id="Fill-12" fill="#FFFFFF"></path>
                    <path d="M108.784586,5.84957078 C108.784586,4.18254536 108.791008,2.51551995 108.778309,0.84864845 C108.77612,0.566219161 108.838298,0.482029067 109.117367,0.483414279 C111.525072,0.495881185 113.932922,0.494803798 116.340773,0.484645578 C116.601014,0.483414279 116.705227,0.532204516 116.689464,0.836027631 C116.6629,1.34732469 116.664213,1.86246956 116.688734,2.37407444 C116.703768,2.68682447 116.625681,2.78609798 116.313771,2.78240409 C114.769547,2.76470416 113.225032,2.78440495 111.680808,2.76624328 C111.3616,2.76239547 111.253446,2.8433534 111.278843,3.18873287 C111.309785,3.60937551 111.300882,4.03525118 111.280886,4.45727903 C111.268188,4.72400925 111.341896,4.80542892 111.602137,4.80296632 C113.024779,4.78957594 114.447712,4.80666022 115.870354,4.78849856 C116.175112,4.78480466 116.267503,4.86807128 116.24882,5.18990215 C116.22138,5.66256719 116.227073,6.13908004 116.247506,6.61251464 C116.259037,6.88309267 116.179928,6.95758628 115.923336,6.9552776 C114.500549,6.94234895 113.077615,6.95897149 111.654973,6.94111765 C111.34715,6.93711593 111.260014,7.02946338 111.279572,7.34667688 C111.306137,7.7807099 111.30132,8.21905247 111.280594,8.65385505 C111.268042,8.91750703 111.361454,8.96952943 111.59119,8.96814421 C113.184164,8.95860164 114.777283,8.96952943 116.370256,8.95690861 C116.645677,8.95475383 116.757772,9.0138562 116.740841,9.33183926 C116.714131,9.83036159 116.714131,10.3328856 116.740695,10.831408 C116.758356,11.1655518 116.670927,11.2651332 116.340919,11.2626706 C114.066911,11.2462019 111.792757,11.2538976 109.518749,11.2538976 C108.784586,11.2538976 108.784586,11.2538976 108.784586,10.4660199 L108.784586,5.84957078 Z" id="Fill-14" fill="#FFFFFF"></path>
                    <path d="M63.9942888,0.25551616 C66.3218631,0.267521329 68.1779967,1.54468658 68.9131814,3.63974243 C69.1634975,4.35281867 69.1637894,4.3543578 68.4596934,4.53243447 C67.9403789,4.66387567 67.4166856,4.77777086 66.9016038,4.9256807 C66.6946369,4.98509089 66.6353785,4.91890855 66.5730549,4.72359369 C66.0734445,3.15661135 65.0390481,2.50017488 63.4456369,2.7247331 C62.2009167,2.90003935 61.1419996,4.18566979 61.0736918,5.60458838 C60.9939993,7.25606864 61.8404032,8.57325112 63.2367727,8.97111472 C64.7023256,9.38867912 66.061476,8.63958737 66.5333546,7.11293009 C66.6426763,6.75923935 66.7627988,6.6979822 67.0891584,6.78632793 C67.6761969,6.94501164 68.2756418,7.05598249 68.873919,7.16341336 C69.090665,7.2023532 69.1167913,7.28915981 69.0746097,7.49571027 C68.6354255,9.64740589 66.799434,11.2644098 64.7029094,11.443256 C63.181309,11.5730042 61.8063953,11.2634863 60.585612,10.2813711 C58.9322125,8.9509522 58.1853512,6.61933296 58.720867,4.47163906 C59.2679133,2.2773097 60.9763385,0.647838916 63.0503857,0.328778471 C63.3647768,0.280296059 63.6778543,0.253669211 63.9942888,0.25551616" id="Fill-16" fill="#FFFFFF"></path>
                    <path d="M122.605461,17.8439194 L122.605461,18.5927034 C122.605461,20.0804208 122.597871,21.5681382 122.611883,23.0557018 C122.61451,23.3436719 122.543429,23.4320176 122.267279,23.4204742 C121.708556,23.3973873 121.148519,23.4049291 120.589359,23.4180116 C120.380932,23.4229368 120.320506,23.3516754 120.320944,23.1340432 C120.326636,20.043174 120.326636,16.9523048 120.320798,13.8615895 C120.32036,13.6442652 120.379035,13.561922 120.588191,13.5799298 C120.781584,13.5965523 120.98242,13.6140983 121.170851,13.5780828 C121.95785,13.4278643 122.450747,13.7994089 122.934156,14.4398385 C124.14516,16.0443754 125.433083,17.5842692 126.690648,19.1494046 C126.742754,19.2142017 126.800845,19.2733041 126.907394,19.3921245 C126.916297,19.1874209 126.927244,19.0542867 126.92739,18.9211525 C126.928558,17.2667479 126.935709,15.6121894 126.92126,13.9579387 C126.918778,13.651653 127.000368,13.5639229 127.287174,13.5763898 C127.83349,13.6004001 128.381704,13.5920889 128.928751,13.5790063 C129.142139,13.5739272 129.225481,13.6281044 129.225043,13.8746721 C129.217745,16.9526126 129.218329,20.0307071 129.224313,23.1086476 C129.224751,23.3378232 129.170163,23.4511028 128.939989,23.4140099 C128.916198,23.410316 128.891386,23.413856 128.867011,23.4137021 C128.357621,23.405083 127.782405,23.549145 127.357379,23.3450571 C126.931915,23.1409693 126.652407,22.5928871 126.316268,22.1887131 C125.153868,20.7907266 123.99497,19.3892001 122.833008,17.9907519 C122.781777,17.9291869 122.752439,17.8276047 122.605461,17.8439194" id="Fill-19" fill="#FFFFFF"></path>
                    <path d="M137.211686,17.6128969 C137.9657,17.6128969 138.719859,17.6184377 139.473726,17.6090491 C139.665659,17.6065865 139.747979,17.6564541 139.771478,17.8760871 C140.079885,20.7594824 138.350588,23.3938474 135.407513,23.59301 C133.644062,23.7124461 132.146837,23.1383527 131.017569,21.6726448 C128.772168,18.7580053 130.239035,14.3419502 133.750027,13.5223665 C135.42605,13.1312751 137.014353,13.4218617 138.381531,14.6123743 C138.820277,14.9945388 139.120948,15.4881359 139.377832,16.0189799 C139.497079,16.2653937 139.41943,16.3460438 139.19524,16.4086861 C138.632139,16.5659846 138.071956,16.7348265 137.515423,16.9162893 C137.347864,16.9709282 137.256349,16.9558448 137.162499,16.7851559 C136.535614,15.6435875 135.254405,15.4034841 134.184541,15.7014586 C133.08928,16.006513 132.344608,17.0434209 132.283015,18.2830316 C132.21894,19.5769733 132.769197,20.608956 133.809869,21.1453408 C134.762968,21.6369371 136.011921,21.4764064 136.790455,20.7648693 C137.033911,20.5424659 137.205702,20.2674244 137.351951,19.9683726 C137.461856,19.7438143 137.434562,19.654853 137.170527,19.6594703 C136.428774,19.672399 135.686583,19.6526982 134.945122,19.6700903 C134.692033,19.675939 134.60621,19.6063705 134.618762,19.3311751 C134.640364,18.8577405 134.636569,18.3819973 134.619784,17.9081009 C134.611173,17.6643036 134.696849,17.6052013 134.913157,17.6085873 C135.679285,17.619669 136.445559,17.6128969 137.211686,17.6128969" id="Fill-21" fill="#FFFFFF"></path>
                    <path d="M91.2014967,11.2536359 C90.3667693,11.2536359 89.5552491,11.2490185 88.7438748,11.2573298 C88.5685806,11.2591767 88.5169119,11.1539007 88.4671406,11.0153795 C88.2905328,10.5250145 88.1023944,10.0389591 87.9358576,9.54490022 C87.8691553,9.34666103 87.7772024,9.27247524 87.5695058,9.27432219 C86.3173418,9.28571171 85.0650318,9.28509606 83.8127218,9.27509175 C83.6076524,9.27339872 83.5121966,9.34466017 83.4447646,9.54613152 C83.2837741,10.028647 83.0908191,10.499465 82.9280772,10.9812109 C82.8618128,11.1774493 82.7751144,11.2637941 82.5643527,11.2594846 C81.8595269,11.2448629 81.1539714,11.2422464 80.4491457,11.2594846 C80.1531451,11.2667185 80.1630702,11.1611345 80.2566286,10.9258024 C81.6074594,7.52726232 82.9539116,4.12672133 84.2954012,0.724025564 C84.3682337,0.539484573 84.4651491,0.48330654 84.6483249,0.486230876 C85.3411822,0.497004746 86.0343314,0.494849972 86.7271887,0.487616088 C86.8902225,0.485769139 86.9880136,0.521784645 87.0580729,0.699707402 C88.4227697,4.16150554 89.7944724,7.62037933 91.1635479,11.0801766 C91.1809167,11.1240416 91.1845657,11.1740632 91.2014967,11.2536359 Z M85.6899754,3.47414806 C85.2620298,4.64419027 84.868822,5.72742588 84.4680244,6.80742933 C84.3906673,7.01613457 84.4996971,7.01582674 84.6366046,7.01567283 C85.3398248,7.01444153 86.043045,7.00890068 86.7461193,7.01890499 C86.9630112,7.02213715 86.9878239,6.95718611 86.9116344,6.75556084 C86.5082096,5.68971734 86.1150018,4.61925646 85.6899754,3.47414806 Z" id="Combined-Shape" fill="#FFFFFF"></path>
                    <path d="M87.3647867,23.4170727 C86.4362091,23.4170727 85.6007519,23.4126093 84.7652948,23.4203049 C84.5564305,23.4221519 84.4732351,23.2648534 84.3637674,23.1334122 C83.569762,22.1808482 82.7667073,21.2362877 81.9899248,20.2683325 C81.7746384,19.9999092 81.5279713,20.031923 81.2670004,20.0465447 C81.075651,20.0571646 81.1343256,20.2307778 81.1337418,20.3443652 C81.1292171,21.2416746 81.119584,22.1391379 81.1375367,23.0359856 C81.1436669,23.3381157 81.0651421,23.4375431 80.7724985,23.4244605 C80.2264739,23.4002963 79.6785518,23.4079919 79.1319433,23.4219979 C78.9055642,23.4276927 78.8099624,23.3745929 78.8106922,23.107247 C78.8185739,20.0309995 78.81799,16.9545981 78.811276,13.8781966 C78.8108382,13.6357846 78.8912604,13.5765283 79.1072766,13.5777596 C80.5901984,13.5860709 82.0737041,13.5611371 83.556188,13.5902265 C84.6489671,13.6117743 85.6519828,13.9137504 86.335061,14.9131038 C87.3998163,16.4706974 86.9822337,19.121531 84.7931725,19.8062874 C84.5259255,19.8898618 84.4494441,19.9435773 84.6736339,20.2052284 C85.5607597,21.2399816 86.4274517,22.2944356 87.3647867,23.4170727 Z M82.4479229,15.6551771 C82.0417249,15.6551771 81.7017914,15.6614875 81.3622957,15.6524067 C81.1903585,15.6479432 81.1270132,15.715049 81.1289106,15.8971274 C81.1356246,16.5241666 81.1329974,17.1512058 81.1305162,17.778245 C81.1299323,17.9232305 81.1529935,18.0309692 81.3249307,18.0263518 C82.1241905,18.0054197 82.9268074,18.0900716 83.7221264,17.9586304 C84.2510741,17.8709003 84.6364003,17.3857683 84.6410709,16.8356853 C84.6458875,16.2837554 84.2674213,15.8395642 83.7231481,15.720436 C83.2771039,15.6225477 82.8287244,15.6719535 82.4479229,15.6551771 Z" id="Combined-Shape" fill="#FFFFFF"></path>
                    <path d="M77.5483988,18.496231 C77.4881186,21.3505369 75.4981426,23.5924252 72.5868868,23.6202833 C69.739706,23.6475258 67.6409921,21.3216013 67.6169092,18.5621056 C67.5928264,15.7818316 69.6537374,13.3641753 72.5795889,13.3721788 C75.3251837,13.3797205 77.4622842,15.4830876 77.5483988,18.496231 Z M75.2345444,18.5297532 C75.2374636,16.8462591 74.1170986,15.5972598 72.5900978,15.5818686 C71.0776927,15.5663235 69.9084322,16.8330227 69.9039075,18.4917368 C69.8993828,20.1581466 71.0498149,21.4197667 72.5719992,21.4177658 C74.0870315,21.4157649 75.2316253,20.1741535 75.2345444,18.5297532 Z" id="Combined-Shape" fill="#FFFFFF"></path>
                    <path d="M100.066085,18.5019412 C100.066085,16.9757457 100.071923,15.4495501 100.060685,13.9233546 C100.058641,13.6569322 100.12549,13.5673551 100.385001,13.5773594 C100.919495,13.597522 101.455741,13.6010619 101.989943,13.576436 C102.28463,13.5627378 102.385632,13.6400018 102.378918,13.9706057 C102.3579,15.0088988 102.375999,16.0481155 102.367533,17.0868704 C102.365636,17.3152764 102.394243,17.4287099 102.657258,17.4248621 C103.763903,17.4085474 104.87084,17.4111639 105.977485,17.4234769 C106.219189,17.4262473 106.287789,17.3471363 106.28487,17.0962591 C106.273193,16.0447294 106.288811,14.992892 106.274361,13.9415162 C106.270566,13.6570861 106.342815,13.564123 106.621154,13.5761281 C107.179585,13.6002924 107.739914,13.5910576 108.299075,13.5793603 C108.499327,13.5752047 108.574787,13.630921 108.574349,13.8568644 C108.568219,16.9475797 108.568511,20.0384489 108.573765,23.1293181 C108.574057,23.3424868 108.519178,23.4228291 108.307394,23.4180578 C107.723859,23.4051291 107.139593,23.4015892 106.556204,23.4192891 C106.314061,23.4266769 106.27582,23.3166295 106.27728,23.1003825 C106.283848,22.0488529 106.263998,20.9967076 106.288811,19.9457936 C106.297422,19.5776351 106.181094,19.5016024 105.857508,19.5080667 C104.824133,19.5286909 103.789591,19.5330005 102.756508,19.505758 C102.417305,19.496985 102.358338,19.6141123 102.364176,19.9379441 C102.383005,20.9891659 102.36403,22.0411573 102.376437,23.0926869 C102.379356,23.3435642 102.314113,23.4268308 102.071387,23.4189813 C101.524632,23.4015892 100.976418,23.3985109 100.42981,23.4199047 C100.15074,23.4306786 100.055138,23.3580319 100.058641,23.0420497 C100.075281,21.5287828 100.066085,20.015362 100.066085,18.5019412" id="Fill-29" fill="#FFFFFF"></path>
                    <path d="M140.541751,18.4679727 C140.541751,16.9679423 140.547881,15.4677579 140.53635,13.9678814 C140.534161,13.6852982 140.5797,13.5727882 140.885917,13.5750969 C143.06228,13.5906421 145.238643,13.5884873 147.41486,13.5769439 C147.683275,13.5755587 147.77946,13.6403558 147.763405,13.9364833 C147.739176,14.3835989 147.740344,14.8344083 147.762967,15.2818317 C147.777709,15.5779592 147.702395,15.6746162 147.405373,15.6709223 C146.007398,15.6535302 144.608985,15.6764632 143.21101,15.6535302 C142.87458,15.6479894 142.792552,15.7554203 142.817364,16.0849467 C142.843929,16.4415618 142.843637,16.8038717 142.817073,17.1607946 C142.794449,17.4647716 142.907128,17.5187948 143.168975,17.5160244 C144.445513,17.502634 145.722198,17.5177175 146.998737,17.5035575 C147.263649,17.5006332 147.365381,17.5605051 147.347866,17.8598648 C147.322323,18.2942056 147.327578,18.7319325 147.346552,19.1670429 C147.357499,19.4208445 147.281309,19.4944147 147.041064,19.492106 C145.764526,19.4807164 144.487549,19.5002633 143.211302,19.4777921 C142.878374,19.4717895 142.79007,19.5782969 142.817364,19.9092086 C142.844512,20.2401203 142.843637,20.5771885 142.817656,20.9082541 C142.791676,21.2377806 142.878666,21.3476741 143.213054,21.342595 C144.611028,21.3210472 146.009441,21.3430567 147.407562,21.3259724 C147.706774,21.3224325 147.810841,21.39708 147.791575,21.7247595 C147.763697,22.1972706 147.778147,22.6731678 147.787488,23.1472181 C147.791137,23.340686 147.738446,23.4176422 147.541842,23.4171805 C145.292501,23.4113318 143.043306,23.4088692 140.793964,23.419797 C140.524966,23.4210283 140.539999,23.2745037 140.540291,23.0834984 C140.543064,21.5449898 140.541751,20.0064813 140.541751,18.4679727" id="Fill-31" fill="#FFFFFF"></path>
                    <path d="M94.8184831,23.600444 C92.7704163,23.7646686 90.7756237,22.5458361 89.9886242,20.6499429 C89.1131749,18.5407271 89.5491481,16.1907923 91.1717506,14.6736776 C93.6093764,12.3945425 97.834536,13.1779567 98.9813191,16.3907245 C99.2401007,17.115806 99.2469607,17.1130355 98.5403834,17.2903426 C98.1033885,17.3999283 97.6647881,17.5030496 97.2302745,17.6226395 C97.0402387,17.6749698 96.9395284,17.6688133 96.8626092,17.4280943 C96.4352474,16.0892101 95.4579202,15.4273867 94.2191842,15.6083877 C92.9045507,15.8004704 91.9527659,16.8390714 91.8648998,18.1773399 C91.7716334,19.5974898 92.3834846,20.7261296 93.5166938,21.2237284 C94.9076628,21.8344529 96.3593499,21.1372296 96.8459701,19.5973359 C96.937777,19.3069032 97.0342544,19.2593442 97.3022313,19.3292205 C97.8199403,19.4645095 98.3468446,19.5679386 98.8744787,19.6525904 C99.1552997,19.6976868 99.1986489,19.8101968 99.1304871,20.0853922 C98.633212,22.0965658 97.0027278,23.4993235 95.0372725,23.5895162 C94.9642941,23.5927484 94.8914616,23.5965962 94.8184831,23.600444" id="Fill-33" fill="#FFFFFF"></path>
                    <path d="M109.381958,23.4130248 C109.779252,22.4105933 110.157281,21.4577215 110.534579,20.5043879 C111.398936,18.3202168 112.267087,16.1377387 113.122103,13.9497197 C113.228213,13.6780643 113.349504,13.5566274 113.648423,13.5740195 C114.205833,13.6064951 114.766453,13.5914116 115.325322,13.5790986 C115.531267,13.5746352 115.647157,13.6266576 115.734147,13.8479836 C116.942086,16.9202294 118.158491,19.9892431 119.381171,23.0551785 C119.494142,23.3386851 119.472248,23.43211 119.154938,23.4201048 C118.560018,23.3974797 117.963638,23.4016353 117.368426,23.4196431 C117.132706,23.4267231 117.028201,23.3420712 116.95566,23.1081243 C116.823861,22.6830182 116.647399,22.2737651 116.504069,21.8523529 C116.445395,21.6798171 116.355047,21.6200991 116.18311,21.6208686 C115.028445,21.627333 113.873489,21.6281025 112.718824,21.6205608 C112.540173,21.6193295 112.460334,21.6962857 112.403411,21.8611259 C112.250156,22.3059328 112.085517,22.7464302 111.924527,23.1883127 C111.880885,23.3080566 111.843375,23.418104 111.679173,23.4164109 C110.930414,23.4088692 110.181656,23.4130248 109.381958,23.4130248 Z M114.455667,16.3180163 C114.076179,17.352 113.720628,18.3264195 113.360115,19.2986842 C113.297499,19.4675262 113.336178,19.532785 113.509137,19.5317076 C114.1404,19.5278598 114.771664,19.5269363 115.402927,19.5323233 C115.612667,19.5341702 115.615586,19.4378211 115.552533,19.269287 C115.192165,18.3076422 114.836322,17.3439965 114.455667,16.3180163 Z" id="Combined-Shape" fill="#FFFFFF"></path>
                    <path d="M59.616867,18.480455 C59.616867,16.9676499 59.623727,15.4548447 59.6107368,13.9421934 C59.6082556,13.6562242 59.6805042,13.5737271 59.9559248,13.5752662 C62.1319959,13.5871175 64.3082129,13.5865018 66.4844299,13.575728 C66.7515309,13.5744967 66.8506357,13.640679 66.83604,13.9369604 C66.8129788,14.4102411 66.8145843,14.8861383 66.8356021,15.3595729 C66.8483003,15.644157 66.7696296,15.7328105 66.4917277,15.7298862 C65.1058672,15.7152645 63.7197148,15.7331183 62.3340002,15.7157262 C62.0209227,15.7117245 61.8972972,15.784679 61.9238614,16.1369845 C61.9545123,16.5446985 61.9510094,16.9582612 61.9247371,17.3667448 C61.9032815,17.6991956 61.9934828,17.8081656 62.324513,17.802163 C63.5155211,17.7804613 64.707259,17.8015473 65.898559,17.7876952 C66.1754392,17.7844631 66.2903072,17.8507993 66.2727924,18.1680128 C66.2472499,18.6279031 66.2516286,19.0913334 66.2716247,19.5518394 C66.2837392,19.8278043 66.1906187,19.8956797 65.9400107,19.8932171 C64.7244819,19.8809041 63.5085152,19.8967571 62.2929863,19.881058 C62.0082245,19.8772102 61.918315,19.9573986 61.9242993,20.2646078 C61.9426898,21.2000875 61.9235695,22.1361828 61.9355379,23.0719703 C61.9388949,23.3419327 61.8521966,23.4301245 61.5982316,23.4224289 C61.0516231,23.4061142 60.503701,23.4021125 59.9573844,23.423968 C59.6824017,23.4350497 59.6081096,23.344857 59.6107368,23.0571947 C59.623873,21.5317687 59.616867,20.0060349 59.616867,18.480455" id="Fill-37" fill="#FFFFFF"></path>
                    <path d="M92.1096549,5.8518179 C92.1096549,4.18602378 92.1153472,2.52022967 92.1039626,0.854435557 C92.1022111,0.579855801 92.1525662,0.471501458 92.4401013,0.482890977 C93.0588125,0.507670876 93.679713,0.505823927 94.2987161,0.483506626 C94.5725312,0.473810144 94.6430284,0.555999376 94.6417148,0.844739074 C94.6304761,3.39460612 94.6436122,5.94462709 94.6260974,8.49449414 C94.6236161,8.87342651 94.7234506,8.95653922 95.0693684,8.9513062 C96.4908424,8.92929672 97.9127543,8.94745839 99.3343742,8.93683843 C99.5792899,8.93499148 99.6783946,8.99393994 99.6683236,9.27375271 C99.6484734,9.82414353 99.6524143,10.3760735 99.6671559,10.9264643 C99.673578,11.1691842 99.6176765,11.260762 99.3673605,11.2596847 C97.0465002,11.2499882 94.725494,11.2498343 92.4046338,11.2598386 C92.1522743,11.2610699 92.1042545,11.1661059 92.1054222,10.9261564 C92.1134498,9.23465896 92.1096549,7.54316147 92.1096549,5.8518179" id="Fill-39" fill="#FFFFFF"></path>
                    <path d="M100.453294,5.8435528 C100.453294,4.17714304 100.4603,2.51073327 100.44658,0.844477423 C100.444245,0.553275126 100.521164,0.474471967 100.792352,0.483860625 C101.411647,0.505100539 102.032548,0.505254451 102.651843,0.483706713 C102.91909,0.474318055 102.967401,0.572975916 102.96638,0.831702692 C102.957622,3.39526795 102.966818,5.95898711 102.953973,8.52270628 C102.952368,8.84977017 103.013086,8.95689322 103.347473,8.95150628 C104.781645,8.92918898 106.216255,8.94965933 107.650428,8.93549939 C107.921324,8.93272897 108.009044,9.00352868 107.997075,9.29688575 C107.974452,9.86005129 107.984523,10.4249099 107.993718,10.9886911 C107.996929,11.1840059 107.943363,11.2580378 107.747489,11.2575761 C105.401524,11.2518813 103.055413,11.2495726 100.709303,11.2591152 C100.409215,11.2601926 100.453294,11.0701107 100.453294,10.8811063 L100.453294,5.8435528" id="Fill-41" fill="#FFFFFF"></path>
                    <path d="M47.4901966,2.4 L47.4901966,22.2857143" id="Line" stroke="#FFFFFF" stroke-width="2" stroke-linecap="square"></path>
                </g>
            </g>
        </g>
    </g>
</svg>