<?xml version="1.0" encoding="UTF-8" standalone="no"?>
<svg width="164px" height="15px" viewBox="0 0 164 15" version="1.1" xmlns="http://www.w3.org/2000/svg" xmlns:xlink="http://www.w3.org/1999/xlink">
    <!-- Generator: Sketch 43.2 (39069) - http://www.bohemiancoding.com/sketch -->
    <title>Social Media Menu</title>
    <desc>Created with Sketch.</desc>
    <defs>
        <polygon id="path-1" points="0 16.961856 30.3281147 16.961856 30.3281147 -6.40000025e-05 0 -6.40000025e-05"></polygon>
        <polygon id="path-3" points="1.4663575e-21 1.61797759e-05 1.4663575e-21 14.3943371 14.4387424 14.3943371 14.4387424 1.61797759e-05 0 1.61797759e-05"></polygon>
        <polygon id="path-5" points="0 14.3871759 14.3843495 14.3871759 14.3843495 0.00453935185 0 0.00453935185"></polygon>
    </defs>
    <g id="Symbols" stroke="none" stroke-width="1" fill="none" fill-rule="evenodd">
        <g id="Social-Media-Menu">
            <g>
                <g id="Soundcloud-Logo" transform="translate(133.666667, 0.720000)">
                    <mask id="mask-2" fill="white">
                        <use xlink:href="#path-1"></use>
                    </mask>
                    <g id="Clip-2"></g>
                    <path d="M15.0921706,0.857536 C14.8680953,0.857536 14.6841384,1.038016 14.6808767,1.259776 L14.5129018,9.504576 L14.6812029,12.496896 C14.6841384,12.715456 14.8680953,12.895616 15.0921706,12.895616 C15.3155935,12.895616 15.4995505,12.715456 15.5028122,12.493696 L15.5028122,12.497216 L15.6857907,9.504576 L15.5028122,1.259136 C15.4995505,1.038016 15.3155935,0.857536 15.0921706,0.857536 L15.0921706,0.857536 Z M26.5982889,5.601856 C26.0871885,5.601856 25.599572,5.703296 25.1553355,5.886016 C24.8585254,2.587456 22.0391563,-6.40000025e-05 18.6000738,-6.40000025e-05 C17.7585685,-6.40000025e-05 16.9382638,0.162496 16.2138516,0.437376 C15.9323713,0.544256 15.8576796,0.654336 15.8547441,0.867776 L15.8547441,12.484096 C15.8580057,12.707776 16.0351133,12.894336 16.2575577,12.916416 C16.2670165,12.917376 26.5314251,12.922496 26.5979627,12.922496 C28.6580201,12.922496 30.3283104,11.284096 30.3283104,9.262016 C30.3283104,7.240896 28.6586724,5.601856 26.5982889,5.601856 L26.5982889,5.601856 Z M10.3167907,12.607936 L10.3167907,12.606016 L10.5320595,9.502016 L10.3167907,2.735936 C10.3118982,2.567936 10.1768659,2.436096 10.0098695,2.436096 C9.84222079,2.436096 9.70718853,2.567616 9.70262222,2.735936 L9.51181577,9.501696 L9.70294839,12.607296 C9.7075147,12.773696 9.84254695,12.905216 10.0098695,12.905216 C10.1771921,12.905216 10.3112459,12.773696 10.3167907,12.606656 L10.3167907,12.607936 Z M7.51960072,12.905536 C7.65593763,12.905536 7.76846452,12.796416 7.77498781,12.657216 L8.02548244,9.501056 L7.77498781,3.460096 C7.76813835,3.320576 7.65593763,3.211776 7.51960072,3.211776 C7.38195914,3.211776 7.26975842,3.320896 7.26388746,3.460096 C7.26388746,3.460416 7.04209534,9.501056 7.04209534,9.501056 L7.26421362,12.658496 C7.26975842,12.796416 7.38195914,12.905536 7.51960072,12.905536 L7.51960072,12.905536 Z M12.5392781,2.799616 C12.3419484,2.799616 12.1837584,2.953536 12.1798444,3.150656 L12.0193713,9.502976 L12.1798444,12.559616 C12.1837584,12.754176 12.3416222,12.908096 12.5392781,12.908096 C12.7362817,12.908096 12.8934932,12.754816 12.8980595,12.557376 L12.8980595,12.559936 L13.0781025,9.503296 L12.8980595,3.150016 C12.8934932,2.953536 12.7362817,2.799616 12.5392781,2.799616 L12.5392781,2.799616 Z M2.65583011,12.699136 C2.73476201,12.699136 2.79869032,12.638016 2.80782294,12.553536 L3.12942151,9.498496 L2.8081491,6.327616 C2.79869032,6.242816 2.73476201,6.181696 2.65583011,6.181696 C2.57591971,6.181696 2.51231756,6.243136 2.50383728,6.327616 C2.50383728,6.327936 2.22072616,9.498496 2.22072616,9.498496 L2.50383728,12.552896 C2.5119914,12.637696 2.57559355,12.699136 2.65583011,12.699136 L2.65583011,12.699136 Z M5.06814552,12.873536 C5.17643226,12.873536 5.26351828,12.788416 5.2716724,12.676736 L5.55804516,9.499136 L5.2716724,6.475776 C5.26384444,6.364096 5.17643226,6.279936 5.06814552,6.279936 C4.95888029,6.279936 4.87114194,6.364736 4.86429247,6.477056 L4.61216703,9.499136 L4.86429247,12.676416 C4.8714681,12.788416 4.95888029,12.873536 5.06814552,12.873536 L5.06814552,12.873536 Z M11.2698444,12.902016 C11.4515183,12.902016 11.5979663,12.758976 11.6031849,12.576576 L11.6031849,12.579136 L11.8005147,9.502016 L11.6028588,2.909376 C11.5976401,2.726976 11.4511921,2.584256 11.2695183,2.584256 C11.0868659,2.584256 10.9400918,2.726976 10.9361778,2.909376 L10.7607011,9.502656 L10.9365039,12.578496 C10.9404179,12.758976 11.0871921,12.902016 11.2698444,12.902016 L11.2698444,12.902016 Z M13.8188229,12.914176 C14.0272423,12.914176 14.1997835,12.745216 14.2033713,12.537856 L14.2033713,12.540416 L14.2033713,12.537856 L14.3658014,9.503616 L14.2033713,1.943936 C14.2001097,1.736896 14.0272423,1.567936 13.8188229,1.567936 C13.6094251,1.567936 13.4368839,1.736576 13.4336222,1.944256 L13.288805,9.501056 C13.288805,9.505856 13.4336222,12.539776 13.4336222,12.539776 C13.4368839,12.745216 13.6097513,12.914176 13.8188229,12.914176 L13.8188229,12.914176 Z M8.75967957,12.899136 C8.91134624,12.899136 9.03496272,12.779136 9.04083369,12.625536 L9.27371541,9.501696 L9.04115986,2.956096 C9.03528889,2.802496 8.91199857,2.682496 8.76000573,2.682496 C8.60703441,2.682496 8.48341792,2.802816 8.47885161,2.956416 C8.47885161,2.956736 8.27206308,9.501696 8.27206308,9.501696 L8.47885161,12.626496 C8.48341792,12.779136 8.60703441,12.899136 8.75967957,12.899136 L8.75967957,12.899136 Z M3.85742151,6.069376 C3.76315986,6.069376 3.68651111,6.142976 3.67900932,6.241216 L3.41155412,9.499136 L3.67900932,12.650496 C3.68618495,12.748096 3.76315986,12.821696 3.85742151,12.821696 C3.95005233,12.821696 4.02670108,12.748096 4.0348552,12.650496 L4.33884086,9.499136 L4.0348552,6.240576 C4.02670108,6.142976 3.95005233,6.069376 3.85742151,6.069376 L3.85742151,6.069376 Z M6.28865448,4.360576 C6.16634265,4.360576 6.06523154,4.458816 6.05968674,4.583616 L5.82191254,9.500416 L6.05968674,12.677376 C6.06555771,12.801536 6.16634265,12.899776 6.28865448,12.899776 C6.41031398,12.899776 6.51109892,12.801216 6.51827455,12.676736 L6.51827455,12.677696 L6.78670824,9.500416 L6.51827455,4.583616 C6.51109892,4.458816 6.41031398,4.360576 6.28865448,4.360576 L6.28865448,4.360576 Z M1.59057563,6.825536 C1.58013835,6.754496 1.52827814,6.705536 1.46467599,6.705536 C1.40009534,6.705536 1.34693047,6.756096 1.33812401,6.825536 C1.33812401,6.826176 1.04000932,9.497856 1.04000932,9.497856 L1.33812401,12.110976 C1.3466043,12.181056 1.39976918,12.231616 1.46467599,12.231616 C1.52795197,12.231616 1.57981219,12.182016 1.59024946,12.111616 L1.92946093,9.497856 L1.59057563,6.825536 Z M0.343321147,7.728576 C0.280045161,7.728576 0.229815771,7.776576 0.221661649,7.845056 L-0.000130465955,9.497856 L0.221661649,11.122176 C0.229815771,11.190976 0.280045161,11.238336 0.343321147,11.238336 C0.404966308,11.238336 0.454543369,11.190976 0.464328315,11.122816 L0.464328315,11.122496 L0.464328315,11.122816 L0.727217204,9.497856 L0.464328315,7.844736 C0.454869534,7.776576 0.404640143,7.728576 0.343321147,7.728576 L0.343321147,7.728576 Z" id="Fill-1" fill="#94C1C2" mask="url(#mask-2)"></path>
                </g>
                <g id="Facebook-Logo">
                    <mask id="mask-4" fill="white">
                        <use xlink:href="#path-3"></use>
                    </mask>
                    <g id="Clip-2"></g>
                    <path d="M13.6418635,1.61797759e-05 L0.796911361,1.61797759e-05 C0.356707449,1.61797759e-05 -2.1639618e-05,0.35564764 -2.1639618e-05,0.794443146 L-2.1639618e-05,13.5998724 C-2.1639618e-05,14.0386139 0.356707449,14.3943533 0.796911361,14.3943533 L7.71222971,14.3943533 L7.71222971,8.82009708 L5.8305568,8.82009708 L5.8305568,6.64769258 L7.71222971,6.64769258 L7.71222971,5.04562517 C7.71222971,3.18646112 8.85123096,2.17409258 10.5148847,2.17409258 C11.3118177,2.17409258 11.9966575,2.2332027 12.196283,2.25962966 L12.196283,4.20260494 L11.0424586,4.20314427 C10.1377062,4.20314427 9.9624794,4.63174652 9.9624794,5.26070831 L9.9624794,6.64769258 L12.1203279,6.64769258 L11.8393375,8.82009708 L9.9624794,8.82009708 L9.9624794,14.3943533 L13.6418635,14.3943533 C14.0819592,14.3943533 14.4387424,14.0386139 14.4387424,13.5998724 L14.4387424,0.794443146 C14.4387424,0.35564764 14.0819592,1.61797759e-05 13.6418635,1.61797759e-05" id="Fill-1" fill="#94C1C2" mask="url(#mask-4)"></path>
                </g>
                <path d="M58.6429202,4.37121721 C58.6429202,4.22954685 58.6399302,4.08857814 58.6331529,3.94831108 C59.298594,3.48649503 59.8770593,2.91030934 60.3333333,2.25426264 C59.7227089,2.51464014 59.0655069,2.69018127 58.3762122,2.76934062 C59.0797924,2.36435856 59.6200522,1.72342933 59.8748002,0.959519237 C59.21607,1.33426638 58.487108,1.60689094 57.7107711,1.75366424 C57.0889176,1.11777416 56.2032131,0.72 55.2231576,0.72 C53.3409193,0.72 51.814624,2.18518159 51.814624,3.99143092 C51.814624,4.24823637 51.8445904,4.4978977 51.9029951,4.73741693 C49.0706678,4.60072193 46.5590013,3.29877063 44.8783556,1.31914892 C44.585402,1.80252489 44.4168324,2.36435856 44.4168324,2.96357127 C44.4168324,4.09865644 45.0184869,5.10068246 45.9333604,5.68688267 C45.3744298,5.6703619 44.8491864,5.52288694 44.389856,5.27756311 C44.3890587,5.29127726 44.3890587,5.30499141 44.3890587,5.31934343 C44.3890587,6.9039976 45.5639958,8.22680717 47.1232476,8.52679624 C46.8370713,8.60155431 46.5358122,8.64186753 46.2248522,8.64186753 C46.0053198,8.64186753 45.7917673,8.62100927 45.5841949,8.58286479 C46.0180771,9.88271113 47.2761362,10.8286048 48.7679469,10.8552677 C47.6013153,11.7328457 46.1319629,12.2557695 44.53517,12.2557695 C44.2602229,12.2557695 43.9889967,12.240652 43.7222222,12.2104171 C45.2305111,13.1383867 47.0213218,13.68 48.9462838,13.68 C55.2149184,13.68 58.6429202,8.69436403 58.6429202,4.37121721 Z" id="Twitter-Logo" fill="#94C1C2"></path>
                <g id="Instagram-Logo" transform="translate(89.611111, 0.000000)">
                    <g id="Group-3">
                        <mask id="mask-6" fill="white">
                            <use xlink:href="#path-5"></use>
                        </mask>
                        <g id="Clip-2"></g>
                        <path d="M7.19218904,0.00453935185 C5.23889738,0.00453935185 4.99397222,0.0128186728 4.22685031,0.047820216 C3.46132716,0.0827361111 2.93850231,0.204327932 2.48102701,0.382133488 C2.00807793,0.565905864 1.60698765,0.811830247 1.207125,1.21166435 C0.807290895,1.61152701 0.561366512,2.01261728 0.377594136,2.48556636 C0.19978858,2.94304167 0.0781967593,3.46586651 0.0432808642,4.23138966 C0.00827932099,4.99851157 0,5.24343673 0,7.1967284 C0,9.14999151 0.00827932099,9.39491667 0.0432808642,10.1620386 C0.0781967593,10.9275617 0.19978858,11.4503866 0.377594136,11.9078619 C0.561366512,12.380811 0.807290895,12.7819012 1.207125,13.1817639 C1.60698765,13.581598 2.00807793,13.8275224 2.48102701,14.0113233 C2.93850231,14.1891003 3.46132716,14.3106921 4.22685031,14.345608 C4.99397222,14.3806096 5.23889738,14.3888889 7.19218904,14.3888889 C9.14545216,14.3888889 9.39037731,14.3806096 10.1574992,14.345608 C10.9230224,14.3106921 11.4458472,14.1891003 11.9033225,14.0113233 C12.3762716,13.8275224 12.7773619,13.581598 13.1772245,13.1817639 C13.5770586,12.7819012 13.822983,12.380811 14.006784,11.9078619 C14.184561,11.4503866 14.3061528,10.9275617 14.3410687,10.1620386 C14.3760702,9.39491667 14.3843495,9.14999151 14.3843495,7.1967284 C14.3843495,5.24343673 14.3760702,4.99851157 14.3410687,4.23138966 C14.3061528,3.46586651 14.184561,2.94304167 14.006784,2.48556636 C13.822983,2.01261728 13.5770586,1.61152701 13.1772245,1.21166435 C12.7773619,0.811830247 12.3762716,0.565905864 11.9033225,0.382133488 C11.4458472,0.204327932 10.9230224,0.0827361111 10.1574992,0.047820216 C9.39037731,0.0128186728 9.14545216,0.00453935185 7.19218904,0.00453935185 Z M7.19218904,1.30042438 C9.11256327,1.30042438 9.34004475,1.30776157 10.0984306,1.34236343 C10.7996605,1.37433873 11.1804807,1.4915054 11.4339136,1.59000077 C11.7696258,1.72047145 12.0092122,1.87632253 12.260875,2.12801389 C12.5125664,2.3796767 12.6684174,2.61926312 12.7988881,2.95497531 C12.8973835,3.20840818 13.0145502,3.5892284 13.0465255,4.29045833 C13.0811273,5.04884414 13.0884645,5.27632562 13.0884645,7.1967284 C13.0884645,9.11710262 13.0811273,9.3445841 13.0465255,10.1029699 C13.0145502,10.8041998 12.8973835,11.1850201 12.7988881,11.4384529 C12.6684174,11.7741651 12.5125664,12.0137515 12.260875,12.2654144 C12.0092122,12.5171057 11.7696258,12.6729568 11.4339136,12.8034275 C11.1804807,12.9019228 10.7996605,13.0190895 10.0984306,13.0510648 C9.34015895,13.0856667 9.11270602,13.0930039 7.19218904,13.0930039 C5.27164352,13.0930039 5.04421914,13.0856667 4.28591898,13.0510648 C3.58468904,13.0190895 3.20386883,12.9019228 2.95043596,12.8034275 C2.61472377,12.6729568 2.37513735,12.5171057 2.12347454,12.2654144 C1.87181173,12.0137515 1.7159321,11.7741651 1.58546142,11.4384529 C1.48696605,11.1850201 1.36979938,10.8041998 1.33782407,10.1029699 C1.30322222,9.3445841 1.29588503,9.11710262 1.29588503,7.1967284 C1.29588503,5.27632562 1.30322222,5.04884414 1.33782407,4.29045833 C1.36979938,3.5892284 1.48696605,3.20840818 1.58546142,2.95497531 C1.7159321,2.61926312 1.87178318,2.3796767 2.12347454,2.12801389 C2.37513735,1.87632253 2.61472377,1.72047145 2.95043596,1.59000077 C3.20386883,1.4915054 3.58468904,1.37433873 4.28591898,1.34236343 C5.04430478,1.30776157 5.27178627,1.30042438 7.19218904,1.30042438 L7.19218904,1.30042438 Z" id="Fill-1" fill="#94C1C2" mask="url(#mask-6)"></path>
                    </g>
                    <path d="M7.19218904,9.59410571 C5.86812577,9.59410571 4.79478318,8.52076312 4.79478318,7.1967284 C4.79478318,5.87266512 5.86812577,4.79932253 7.19218904,4.79932253 C8.51622377,4.79932253 9.58956636,5.87266512 9.58956636,7.1967284 C9.58956636,8.52076312 8.51622377,9.59410571 7.19218904,9.59410571 Z M7.19218904,3.5034375 C5.1524213,3.5034375 3.49889815,5.15696065 3.49889815,7.1967284 C3.49889815,9.23646759 5.1524213,10.8899907 7.19218904,10.8899907 C9.23192824,10.8899907 10.8854514,9.23646759 10.8854514,7.1967284 C10.8854514,5.15696065 9.23192824,3.5034375 7.19218904,3.5034375 L7.19218904,3.5034375 Z" id="Fill-4" fill="#94C1C2"></path>
                    <path d="M11.8944437,3.3575216 C11.8944437,3.8341821 11.5080278,4.22056944 11.0313673,4.22056944 C10.5547353,4.22056944 10.1683194,3.8341821 10.1683194,3.3575216 C10.1683194,2.88086111 10.5547353,2.49444522 11.0313673,2.49444522 C11.5080278,2.49444522 11.8944437,2.88086111 11.8944437,3.3575216" id="Fill-5" fill="#94C1C2"></path>
                </g>
            </g>
        </g>
    </g>
</svg>